<?xml version="1.0" encoding="UTF-8"?>
<svg version="1.1" xmlns="http://www.w3.org/2000/svg" width="512" height="512" viewBox="0 0 512 512" overflow="hidden">
<defs>
  <clipPath id="logo-clip">
    <rect width="512" height="512" rx="96" ry="96"/>
  </clipPath>
</defs>
<g clip-path="url(#logo-clip)">
<rect width="512" height="512" rx="96" ry="96" fill="#0055A4"/>
<path d="M0 0 C0.95940491 -0.00418945 1.91880981 -0.00837891 2.9072876 -0.01269531 C6.1778143 -0.02267911 9.44821007 -0.02242414 12.71875 -0.01953125 C14.44575134 -0.01912338 14.44575134 -0.01912338 16.2076416 -0.01870728 C43.00601268 0.00930949 69.80274659 0.41714212 96.59692383 0.86068726 C101.5166116 0.94197002 106.43633336 1.01682055 111.35620117 1.08633423 C117.23876794 1.17019139 123.12090779 1.26889682 129.00304413 1.37878418 C131.20533876 1.41767332 133.40772659 1.45162415 135.61017609 1.48043823 C138.65167476 1.52126949 141.69230192 1.58023411 144.73339844 1.64379883 C145.62651482 1.65171353 146.5196312 1.65962824 147.43981171 1.66778278 C153.39614775 1.81911601 156.89418436 2.84340311 161.21875 7.16796875 C161.87403368 13.74960921 160.36293504 18.16347318 157.53125 24.04296875 C157.16402832 24.83018311 156.79680664 25.61739746 156.41845703 26.4284668 C155.69057947 27.98173126 154.95609322 29.53191961 154.21435547 31.07861328 C153.37781638 32.83415559 152.57716192 34.60673438 151.78515625 36.3828125 C148.35032021 43.87188124 144.02407639 48.07757157 136.21875 51.16796875 C132.44027656 51.59188572 128.68771168 51.54708314 124.88916016 51.50854492 C123.19072464 51.50920204 123.19072464 51.50920204 121.45797729 51.50987244 C117.72441216 51.50778647 113.99129896 51.4844636 110.2578125 51.4609375 C107.66564174 51.45534089 105.0734678 51.4510711 102.48129272 51.44807434 C96.36152814 51.43779974 90.24194939 51.41416809 84.12225473 51.38402587 C77.1525008 51.35044499 70.18273899 51.33398661 63.21292424 51.31893957 C48.88144621 51.2876173 34.55010385 51.23487991 20.21875 51.16796875 C20.23160538 52.41683365 20.24446075 53.66569855 20.25770569 54.95240784 C20.29785732 58.85302951 19.6823522 62.27618801 18.71484375 66.0703125 C18.55627899 66.70163589 18.39771423 67.33295929 18.23434448 67.9834137 C17.71804895 70.02672315 17.1877334 72.06606195 16.65625 74.10546875 C16.2908104 75.53373927 15.92582556 76.96212621 15.5612793 78.390625 C10.92465749 96.4642448 5.83560734 114.37587505 0.21875 132.16796875 C0.80359161 132.17827621 1.38843323 132.18858368 1.99099731 132.19920349 C15.40524646 132.43662742 28.8189515 132.69260051 42.2323761 132.97293091 C48.13218568 133.09401598 54.03118402 133.1978362 59.9319458 133.25672913 C62.07513576 133.28015014 64.21786784 133.31358393 66.36083984 133.35180664 C68.82314708 133.39472992 71.28585683 133.41973448 73.74853516 133.42358398 C78.46070534 133.52879482 81.41228193 133.70061623 85.53515625 136.08984375 C88.87030124 142.18751023 86.45994008 148.55888171 84.765625 154.96484375 C84.17649959 156.95216015 83.57742072 158.93655128 82.96875 160.91796875 C82.68128906 161.91957031 82.39382812 162.92117187 82.09765625 163.953125 C80.16970186 170.30948118 78.27184404 175.58309017 72.43139648 179.30786133 C62.2189291 183.27768617 45.76909289 179.75812946 34.90625 179.23046875 C31.96926856 179.09147227 29.03223131 178.95370501 26.09518433 178.81610107 C24.16476898 178.72565743 22.23436917 178.63488153 20.3039856 178.54376221 C12.52675753 178.17782472 4.74868023 177.84672139 -3.03125 177.54296875 C-4.05259033 177.50308838 -5.07393066 177.46320801 -6.1262207 177.42211914 C-8.34452219 177.33631972 -10.56287822 177.25193103 -12.78125 177.16796875 C-13.7173948 181.142199 -14.65276271 185.1166093 -15.58691406 189.09130859 C-16.37252953 192.43344704 -17.16125524 195.77482953 -17.95214844 199.11572266 C-29.97468484 249.83364041 -29.97468484 249.83364041 -34.9375 301.625 C-35.42770931 319.88776423 -35.42770931 319.88776423 -40.78125 325.16796875 C-46.15647691 329.30560046 -52.26152632 332.3139607 -58.78125 334.16796875 C-59.85439453 334.47541016 -59.85439453 334.47541016 -60.94921875 334.7890625 C-67.61301663 336.32523212 -74.3477947 336.43917117 -81.15625 336.54296875 C-82.11998535 336.5689917 -83.0837207 336.59501465 -84.07666016 336.62182617 C-88.37289286 336.6327265 -91.05073662 336.58460426 -94.8359375 334.42578125 C-96.8106369 332.13386107 -97.71938536 330.55899894 -98.53125 327.66796875 C-98.86382812 326.53875 -98.86382812 326.53875 -99.203125 325.38671875 C-99.48929688 324.2884375 -99.48929688 324.2884375 -99.78125 323.16796875 C-99.95452316 322.54061829 -100.12779633 321.91326782 -100.30632019 321.26690674 C-101.09238388 317.79292192 -100.9857879 314.26112414 -101.01953125 310.71484375 C-101.0293251 309.87517563 -101.03911896 309.03550751 -101.04920959 308.1703949 C-101.44010715 265.73672578 -93.73289426 226.04211544 -82.78125 185.16796875 C-83.6002478 185.30428711 -83.6002478 185.30428711 -84.43579102 185.44335938 C-121.283565 191.41681125 -121.283565 191.41681125 -129.78125 187.16796875 C-130.5376668 179.22559234 -128.8142176 175.2681951 -123.78125 169.16796875 C-123.03875 168.25724609 -123.03875 168.25724609 -122.28125 167.328125 C-109.86692101 153.64132729 -90.17005659 147.65412205 -72.78125 143.16796875 C-72.12125 143.16796875 -71.46125 143.16796875 -70.78125 143.16796875 C-70.69875 142.12511719 -70.61625 141.08226562 -70.53125 140.0078125 C-69.73600445 133.71073796 -67.69177333 127.7621898 -65.78125 121.73046875 C-65.48213211 120.77847595 -65.48213211 120.77847595 -65.17697144 119.80725098 C-58.6495286 99.05087067 -50.99054741 78.77968755 -42.78344727 58.63378906 C-41.77346682 56.1488189 -40.77529479 53.65935098 -39.78125 51.16796875 C-41.26625 51.66296875 -41.26625 51.66296875 -42.78125 52.16796875 C-44.73069107 52.3589683 -46.68053029 52.54692582 -48.63232422 52.7121582 C-58.57662015 53.5881291 -67.42208418 55.75919909 -76.78125 59.16796875 C-78.33392578 59.70550781 -78.33392578 59.70550781 -79.91796875 60.25390625 C-95.60584765 66.16042407 -107.55292844 77.15066064 -119.34375 88.671875 C-122.7113816 91.85178389 -125.14146995 93.93338273 -129.53125 95.54296875 C-132.78125 95.16796875 -132.78125 95.16796875 -135.59375 92.54296875 C-139.32666144 87.52328579 -140.14462062 82.63363398 -140.09375 76.48046875 C-140.08811035 75.76930908 -140.0824707 75.05814941 -140.07666016 74.32543945 C-139.79860078 62.20507906 -134.63910697 49.65401444 -125.78125 41.16796875 C-108.42994553 25.49582278 -87.24657672 15.64579811 -64.79638672 9.70361328 C-63.38478071 9.32839356 -61.97508675 8.94594055 -60.56689453 8.55810547 C-40.86488942 3.14528632 -20.4620116 0.02908119 0 0 Z " fill="#FDFEFE" transform="translate(170.78125,87.83203125)"/>
<path d="M0 0 C8.35851929 8.10632259 12.12017184 16.21101392 12.33203125 27.86328125 C12.32236328 29.29607422 12.32236328 29.29607422 12.3125 30.7578125 C12.30283203 32.26794922 12.30283203 32.26794922 12.29296875 33.80859375 C11.44667665 68.86290329 -16.81342534 98.91242178 -39.140625 123.49609375 C-41.0125969 125.56455125 -42.8561339 127.65342164 -44.6875 129.7578125 C-51.01370897 137.00629339 -57.49137048 144.10638997 -64.0625 151.1328125 C-66.43780975 153.67418994 -68.81289739 156.21577431 -71.1875 158.7578125 C-71.95876221 159.58297363 -71.95876221 159.58297363 -72.74560547 160.42480469 C-78.33502429 166.41731553 -83.72638092 172.51779365 -88.8671875 178.90234375 C-91.88993461 182.62225643 -94.99612403 186.26811917 -98.11914062 189.90405273 C-98.99966319 190.93614338 -99.86829789 191.97846973 -100.72607422 193.02954102 C-102.1875 194.7578125 -102.1875 194.7578125 -104.05908203 196.65600586 C-110.16192006 203.33074311 -110.12802475 209.30323202 -109.8125 218.0703125 C-109.80283203 219.93333008 -109.80283203 219.93333008 -109.79296875 221.83398438 C-109.56087487 234.85172055 -107.12540019 248.78569116 -98.30078125 258.92578125 C-90.32755565 266.27242724 -82.35814115 269.03227728 -71.64453125 268.90234375 C-51.48668489 268.05958633 -34.46617138 258.50335167 -20.1875 244.7578125 C-19.4140625 244.02433594 -18.640625 243.29085937 -17.84375 242.53515625 C-13.18239207 238.00948853 -9.10057742 233.23927804 -5.1015625 228.125 C-1.43832565 223.5945479 2.30322029 218.9831294 7.8125 216.7578125 C10.9375 216.8828125 10.9375 216.8828125 13.8125 217.7578125 C18.46006899 224.83169311 16.78198393 237.90351837 15.45800781 245.8984375 C12.1293342 259.64636496 2.99389292 273.24578293 -6.1875 283.7578125 C-6.73792969 284.43972656 -7.28835938 285.12164062 -7.85546875 285.82421875 C-21.98647479 302.97610494 -46.83957694 318.39120939 -69.1875 320.7578125 C-74.8648926 320.97878886 -80.50970242 320.92581816 -86.1875 320.7578125 C-87.37859375 320.72816406 -88.5696875 320.69851563 -89.796875 320.66796875 C-109.04911843 319.75858859 -128.02008823 313.8752556 -143.1875 301.7578125 C-144.19296875 301.01337891 -144.19296875 301.01337891 -145.21875 300.25390625 C-160.2720726 288.33669252 -169.88905399 267.46244765 -172.1875 248.7578125 C-172.3547349 245.67343052 -172.39763782 242.592386 -172.42578125 239.50390625 C-172.43552979 238.61835052 -172.44527832 237.7327948 -172.45532227 236.82040405 C-172.63908325 215.74784336 -171.96422377 195.54049649 -168.1875 174.7578125 C-167.99494629 173.66533203 -167.80239258 172.57285156 -167.60400391 171.44726562 C-159.63018025 126.86846203 -145.06377913 81.73622612 -118.1875 44.7578125 C-117.7759668 44.18546875 -117.36443359 43.613125 -116.94042969 43.0234375 C-100.05192656 19.79029919 -76.97888058 -0.94296085 -48.1875 -7.2421875 C-32.09926802 -9.68239506 -13.23290639 -10.97228488 0 0 Z " fill="#FDFEFE" transform="translate(465.1875,98.2421875)"/>
<path d="M0 0 C2.67431489 1.81163267 2.95920359 2.87761077 4 6 C5.87715185 22.49431789 -4.85285613 35.92110018 -14.5 48.1875 C-16.31947446 50.46975997 -18.15568914 52.7377835 -20 55 C-20.73992187 55.91136719 -21.47984375 56.82273438 -22.2421875 57.76171875 C-24.96456878 61.09738373 -27.69409177 64.42699424 -30.44433594 67.73974609 C-42.66030431 82.46441964 -53.89031022 97.7513513 -64 114 C-65.52389844 109.42830467 -64.0927313 105.56337281 -63.0625 100.9375 C-62.83651123 99.92107422 -62.61052246 98.90464844 -62.37768555 97.85742188 C-55.13009014 66.34154495 -42.86875262 23.40390386 -14.84765625 3.46875 C-9.71834118 0.31224842 -6.00268326 -0.82795631 0 0 Z " fill="#0357A5" transform="translate(426,133)"/>
</g>
</svg>
